<svg xmlns="http://www.w3.org/2000/svg" viewBox="0 0 128 128" role="img" aria-label="macOS">
  <defs>
    <linearGradient id="mbg" x1="0%" y1="0%" x2="100%" y2="100%">
      <stop offset="0%" stop-color="#e8edf7"/>
      <stop offset="100%" stop-color="#b3c1db"/>
    </linearGradient>
  </defs>
  <rect x="10" y="10" width="108" height="108" rx="24" fill="#0f1f38"/>
  <g transform="translate(24 24) scale(5)" fill="url(#mbg)">
    <path d="M11.182.008C11.148-.03 9.923.002 8.758.903c-1.066.78-1.584 1.882-1.79 2.154-.5 0-1.275-.972-2.496-.94-1.2.015-2.3.7-2.916 1.78-1.263 2.165-.32 5.362.89 7.11.585.845 1.275 1.785 2.2 1.75.9-.045 1.24-.562 2.324-.562 1.067 0 1.372.563 2.332.544.96-.016 1.565-.86 2.15-1.705.68-.97.96-1.92.96-1.97-.015-.03-1.855-.7-1.87-2.78-.015-1.735 1.429-2.56 1.49-2.595-.796-1.17-2.03-1.295-2.466-1.33zM10.12 2.545c.496-.6.839-1.417.748-2.245-.712.03-1.57.465-2.084 1.05-.468.54-.883 1.37-.766 2.175.793.06 1.614-.39 2.102-.98z"/>
  </g>
</svg>
