<svg data-v-0f8771ae="" xmlns="http://www.w3.org/2000/svg" fill="none" viewBox="0 0 144 128" preserveAspectRatio="none" width="100%" height="100%"><path data-v-0f8771ae="" fill-rule="evenodd" clip-rule="evenodd" d="M31.37 76.48c0-15.78 0-23.67 3.07-29.7 2.7-5.3 7.01-9.61 12.31-12.31 6.02-3.07 13.91-3.07 29.68-3.07h22.53c15.77 0 23.65 0 29.68 3.07 5.3 2.7 9.61 7.01 12.31 12.31C144 52.8 144 60.69 144 76.48v6.44c0 15.78 0 23.67-3.07 29.7-2.7 5.3-7.01 9.61-12.31 12.31-6.02 3.07-13.9 3.07-29.67 3.07H57.11c-9.01 0-13.52 0-16.96-1.75-3.03-1.54-5.49-4.01-7.03-7.04-1.75-3.44-1.75-7.95-1.75-16.97V76.48zm40.22 3.22c0-4.45 3.6-8.05 8.05-8.05 4.44 0 8.05 3.6 8.05 8.05v16.1c0 4.45-3.6 8.05-8.05 8.05-4.44 0-8.05-3.6-8.05-8.05V79.7zm40.23-8.06c-4.44 0-8.05 3.6-8.05 8.05v16.1c0 4.45 3.6 8.05 8.05 8.05 4.44 0 8.05-3.6 8.05-8.05V79.7c-.01-4.45-3.61-8.06-8.05-8.06zM59.46 7.06c.55 4.41-2.58 8.43-6.99 8.98-2.43.3-4.38.71-6.11 1.25C32.48 21.62 21.61 32.5 17.28 46.4c-.54 1.73-.95 3.68-1.25 6.12-.55 4.41-4.57 7.54-8.98 7-4.41-.55-7.54-4.57-6.99-8.98.39-3.17.98-6.09 1.86-8.92 5.9-18.96 20.72-33.8 39.66-39.7 2.83-.88 5.75-1.46 8.91-1.86 4.41-.55 8.43 2.59 8.97 7z" class="streamlabs-logomark__path"></path></svg>