<?xml version="1.0" encoding="utf-8"?>
<!-- Generator: Adobe Illustrator 26.0.2, SVG Export Plug-In . SVG Version: 6.00 Build 0)  -->
<svg version="1.1" id="Слой_2_00000020395834992121541090000000842789520167144330_"
	 xmlns="http://www.w3.org/2000/svg" xmlns:xlink="http://www.w3.org/1999/xlink" x="0px" y="0px" viewBox="0 0 1565.5 1566"
	 style="enable-background:new 0 0 1565.5 1566;" xml:space="preserve">
<style type="text/css">
	.st0{fill:url(#SVGID_1_);}
	.st1{fill:url(#SVGID_00000131363028411160348330000004739673531835861145_);}
	.st2{fill:url(#SVGID_00000182497928324597178310000000151437996716080529_);}
	.st3{fill:url(#SVGID_00000152234341643503817100000005850955528467560070_);}
	.st4{fill:#020203;}
	.st5{fill:url(#SVGID_00000072966181707657485830000002807114749953814445_);}
	.st6{fill:url(#SVGID_00000165955447562131031010000008482338557098393252_);}
	.st7{fill:url(#SVGID_00000021812074359746148700000006275566974744184486_);}
	.st8{display:none;}
	.st9{display:inline;}
</style>
<linearGradient id="SVGID_1_" gradientUnits="userSpaceOnUse" x1="701.6431" y1="154.0397" x2="1428.6636" y2="815.702" gradientTransform="matrix(1 0 0 -1 0 1572.8025)">
	<stop  offset="0" style="stop-color:#5658D6"/>
	<stop  offset="0.5244" style="stop-color:#654FD4"/>
	<stop  offset="1" style="stop-color:#7F65E5"/>
</linearGradient>
<path class="st0" d="M801.8,1564.7V826.5l763.7,0.6c-4.3,69.2-16.7,125.6-16.7,125.6c-21.5,99-61.6,191.7-119,275.7
	s-129.3,154.9-213.7,210.9c-87.4,58-184.3,97.3-288.3,116.8C927.9,1556.1,829.4,1569.2,801.8,1564.7z"/>
<radialGradient id="SVGID_00000042729650829241953520000014446791358748926898_" cx="1320.0745" cy="1162.1528" r="647.9388" fx="1399.9598" fy="1144.7434" gradientTransform="matrix(0.9884 0.1522 0.223 -1.4488 -243.7579 1893.5173)" gradientUnits="userSpaceOnUse">
	<stop  offset="7.778874e-02" style="stop-color:#985AE6"/>
	<stop  offset="0.3142" style="stop-color:#8E5EE5"/>
	<stop  offset="0.7179" style="stop-color:#726AE3"/>
	<stop  offset="0.8998" style="stop-color:#6470E2"/>
</radialGradient>
<path style="fill:url(#SVGID_00000042729650829241953520000014446791358748926898_);" d="M1552.9,641.7
	c-18.4-104.1-62-203.9-120-291.2c-56-84.4-127-156.3-210.9-213.7s-176.7-97.4-275.7-119C891.5,5.9,836.2-0.1,780.6,0v827.1h784.9
	l-0.7-85.1C1564.9,742.1,1561,687.5,1552.9,641.7z"/>
<radialGradient id="SVGID_00000138535334637104689080000014257051294871923612_" cx="390.0266" cy="1159.2396" r="646.3354" fx="609.3336" fy="1037.4169" gradientTransform="matrix(-0.9976 -6.929979e-02 0.1461 -2.1032 610.1661 2878.6919)" gradientUnits="userSpaceOnUse">
	<stop  offset="0.2705" style="stop-color:#48B2F7"/>
	<stop  offset="0.3757" style="stop-color:#4CA8F4"/>
	<stop  offset="0.5552" style="stop-color:#588CEB"/>
	<stop  offset="0.7094" style="stop-color:#6470E2"/>
</radialGradient>
<path style="fill:url(#SVGID_00000138535334637104689080000014257051294871923612_);" d="M0,740.8v-10.5c2.1-30.5,6-61,11.8-91.5
	c19.5-103.9,58.8-200.9,116.8-288.3c56-84.4,127-156.3,210.9-213.7s176.7-97.4,275.7-119C670,5.9,725.3-0.1,780.9,0v827.1H0L0,740.8
	L0,740.8z"/>
<linearGradient id="SVGID_00000011714236467154310720000006625584527548839860_" gradientUnits="userSpaceOnUse" x1="150.2675" y1="859.3" x2="856.8352" y2="151.9013" gradientTransform="matrix(1 0 0 -1 0 1572.8025)">
	<stop  offset="0.1665" style="stop-color:#4EA6F3"/>
	<stop  offset="0.3263" style="stop-color:#5881E7"/>
	<stop  offset="0.7988" style="stop-color:#5765DC"/>
	<stop  offset="0.9975" style="stop-color:#5658D6"/>
</linearGradient>
<path style="fill:url(#SVGID_00000011714236467154310720000006625584527548839860_);" d="M808.7,827.1H0c2,33.4,6.1,66.8,12.3,100.1
	c19.5,103.9,58.7,200.9,116.5,288.3c55.9,84.4,126.7,156.3,210.4,213.7s176.3,97.4,275,119c54.5,11.9,109.6,17.8,164.9,17.8
	c9.8,0,19.7-0.2,29.5-0.6L808.7,827.1L808.7,827.1z"/>
<circle class="st4" cx="783.2" cy="782.5" r="737.8"/>
<linearGradient id="SVGID_00000159439189866059108550000017133159993368492968_" gradientUnits="userSpaceOnUse" x1="108.6765" y1="791.2636" x2="1513.8121" y2="778.2483" gradientTransform="matrix(1 0 0 -1 0 1572.8025)">
	<stop  offset="0.2073" style="stop-color:#45B9FA"/>
	<stop  offset="0.2125" style="stop-color:#46B8FA"/>
	<stop  offset="0.4313" style="stop-color:#657BEB"/>
	<stop  offset="0.6393" style="stop-color:#6C6AE3"/>
	<stop  offset="0.6628" style="stop-color:#6B66E1"/>
	<stop  offset="0.7763" style="stop-color:#6857D8"/>
</linearGradient>
<path style="fill:url(#SVGID_00000159439189866059108550000017133159993368492968_);" d="M783.5,634.3L553.8,346.4
	c-7.6-9.5-19.1-15-31.3-15.1l-225-0.1l364.4,455.4l121.6,152l232.6,290.7c7.7,9.6,19.3,15.1,31.6,15l221.2-2L905.2,786.7
	L783.5,634.3z"/>
<linearGradient id="SVGID_00000156560011141676566680000000921509752193252783_" gradientUnits="userSpaceOnUse" x1="867.788" y1="912.498" x2="1158.0398" y2="1211.0082" gradientTransform="matrix(1 0 0 -1 0 1572.8025)">
	<stop  offset="0" style="stop-color:#8573EC"/>
	<stop  offset="6.628317e-02" style="stop-color:#8973ED"/>
	<stop  offset="1" style="stop-color:#C672F8"/>
</linearGradient>
<path style="fill:url(#SVGID_00000156560011141676566680000000921509752193252783_);" d="M908.6,746.5c4.1,4.8,18.3,3.5,22.3-1.3
	l344.2-414.9l-216.4,0.1c-11.7,0-22.8,5.5-30.1,15.1L811.3,613.3c-3.5,4.3-3.4,10.5,0.2,14.8L908.6,746.5z"/>
<linearGradient id="SVGID_00000040553693727779355010000000813685888596880544_" gradientUnits="userSpaceOnUse" x1="307.2692" y1="551.7836" x2="847.0184" y2="521.8844" gradientTransform="matrix(1 0 0 -1 0 1572.8025)">
	<stop  offset="7.949257e-02" style="stop-color:#4E99EE"/>
	<stop  offset="0.3283" style="stop-color:#5095ED"/>
	<stop  offset="0.5944" style="stop-color:#5788EA"/>
	<stop  offset="0.7464" style="stop-color:#5C7DE7"/>
</linearGradient>
<path style="fill:url(#SVGID_00000040553693727779355010000000813685888596880544_);" d="M640.5,819.9c-6.3-7.6-18-7.7-24.4-0.1
	l-355.6,423.3l216.4-0.3c11.8,0.1,26.5-9.1,33.9-18.6l223.9-269.6c3.4-4.2,6.6-12.7,3.2-16.9L640.5,819.9z"/>
<g class="st8">
	<g class="st9">
		<g>
			<defs>
				<path id="SVGID_00000008837282349621255510000017877765778228595360_" d="M908.6,746.5c4.1,4.8,18.3,3.5,22.3-1.3l344.2-414.9
					l-216.4,0.1c-11.7,0-22.8,5.5-30.1,15.1L811.3,613.3c-3.5,4.3-3.4,10.5,0.2,14.8L908.6,746.5z"/>
			</defs>
			<clipPath id="SVGID_00000088816714395729316780000014646790471752975292_">
				<use xlink:href="#SVGID_00000008837282349621255510000017877765778228595360_"  style="overflow:visible;"/>
			</clipPath>
		</g>
	</g>
</g>
<g class="st8">
	<g class="st9">
		<g>
			<defs>
				<path id="SVGID_00000073705139103818465720000007564545439854347674_" d="M781.6,634.3L551.9,346.4c-7.6-9.5-19.1-15-31.3-15.1
					l-225-0.1L660,786.6l121.6,152l232.6,290.8c7.7,9.6,19.3,15.1,31.6,15l221.2-2L903.2,786.7L781.6,634.3z"/>
			</defs>
			<clipPath id="SVGID_00000107590854471385826200000017088478594457483434_">
				<use xlink:href="#SVGID_00000073705139103818465720000007564545439854347674_"  style="overflow:visible;"/>
			</clipPath>
		</g>
	</g>
</g>
<g class="st8">
	<g class="st9">
		<g>
			<defs>
				<path id="SVGID_00000176036820652746940210000008728731355471791744_" d="M640.5,819.9c-6.3-7.6-18-7.7-24.4-0.1l-355.6,423.3
					l216.4-0.3c11.8,0.1,26.5-9.1,33.9-18.6l223.9-269.6c3.4-4.2,6.6-12.7,3.2-16.9L640.5,819.9z"/>
			</defs>
			<clipPath id="SVGID_00000183961884554541718000000010841778908275836088_">
				<use xlink:href="#SVGID_00000176036820652746940210000008728731355471791744_"  style="overflow:visible;"/>
			</clipPath>
		</g>
	</g>
</g>
</svg>
